<svg width="48" height="26" viewBox="0 0 48 26" fill="none" xmlns="http://www.w3.org/2000/svg">
<path d="M5.28 25L0.66 0.699998H4.95L7.83 17.5L10.53 0.699998H15L10.38 25H5.28ZM17.2938 25V7.66H21.8238V25H17.2938ZM17.2638 4.81V1.42H21.8238V4.81H17.2638ZM24.3989 25V22.06L29.2889 10.99H24.8189V7.66H34.0289V10.36L29.1089 21.67H34.0589V25H24.3989ZM39.844 25.3C39.024 25.3 38.314 25.09 37.714 24.67C37.134 24.25 36.694 23.72 36.394 23.08C36.094 22.44 35.944 21.78 35.944 21.1C35.944 20.02 36.154 19.11 36.574 18.37C36.994 17.63 37.544 17.01 38.224 16.51C38.904 16.01 39.664 15.58 40.504 15.22C41.344 14.86 42.184 14.53 43.024 14.23V12.61C43.024 12.23 42.994 11.9 42.934 11.62C42.874 11.34 42.754 11.13 42.574 10.99C42.414 10.83 42.174 10.75 41.854 10.75C41.534 10.75 41.284 10.82 41.104 10.96C40.944 11.08 40.824 11.27 40.744 11.53C40.684 11.77 40.644 12.04 40.624 12.34L40.534 13.54L36.244 13.36C36.344 11.32 36.874 9.81 37.834 8.83C38.814 7.85 40.284 7.36 42.244 7.36C44.004 7.36 45.304 7.85 46.144 8.83C46.984 9.79 47.404 11.06 47.404 12.64V20.71C47.404 21.39 47.414 22 47.434 22.54C47.474 23.06 47.514 23.53 47.554 23.95C47.614 24.35 47.664 24.7 47.704 25H43.624C43.564 24.56 43.494 24.08 43.414 23.56C43.334 23.04 43.274 22.69 43.234 22.51C43.034 23.23 42.654 23.88 42.094 24.46C41.534 25.02 40.784 25.3 39.844 25.3ZM41.494 22.09C41.714 22.09 41.924 22.04 42.124 21.94C42.324 21.84 42.494 21.71 42.634 21.55C42.794 21.39 42.924 21.24 43.024 21.1V16.33C42.604 16.59 42.214 16.85 41.854 17.11C41.494 17.35 41.184 17.62 40.924 17.92C40.664 18.22 40.464 18.55 40.324 18.91C40.184 19.27 40.114 19.68 40.114 20.14C40.114 20.74 40.234 21.22 40.474 21.58C40.714 21.92 41.054 22.09 41.494 22.09Z" fill="#626262"/>
</svg>
